<?xml version="1.0" encoding="UTF-8"?>
<svg id="_레이어_2" data-name="레이어 2" xmlns="http://www.w3.org/2000/svg" viewBox="0 0 66.54 21.35">
  <defs>
    <style>
      .cls-1 {
        fill: #3f4050;
      }
    </style>
  </defs>
  <g id="_레이어_1-2" data-name="레이어 1">
    <g>
      <path class="cls-1" d="m10.92,14.3c.48.01.8.13.97.35.17.22.31.65.41,1.29.07.46-.04.98-.34,1.57,2.43-.06,4.01-.1,4.72-.13.88-.03,1.57-.02,2.06.02.13,0,.54.12,1.21.36.04.02.18.14.18.2-.03.39.09,1.07.08,1.49-.02.56-.37,1.16-.75,1.26-.1.02-2.46.41-2.46.31H5.19c-.67.02-2.94.09-3.63.09-.45.01-.87-.08-1.28-.27l-.29-1.72.29-.85c.09-.27.27-.41.54-.43l1.79-.18c1.81-.01,3.72-.04,5.75-.09-.38-.45-.31-.85-.34-1.71-.01-.5-.03-.84-.04-1.02,0-.39.08-.54.47-.54.37.02,2.09,0,2.46,0Zm-3.69-4.07s-.1,0-.25.02c-.15,1-.04,1.15.96.96,1.42-.27,4.82-.27,6.6-.34.01,0,.64-.04,1.88-.13.52-.03.72.19.69.72,0,.97-.12,1.8-.65,2.27-.48.43-1.2.55-2.15.46-.31-.03-.52-.04-.63-.04-2.72-.13-5.85-.34-8.6-.54-.07,0-.18-.03-.31-.09-.48-.21-.95-.68-1.41-1.41-.46-.73-.67-1.33-.63-1.81.07-.73.23-1.41.47-2.04.27-.73.52-.96,1.52-.76.35.04.84,0,1.21,0,.75,0,1.17-.04,1.25,0,.28,0,2.2.1,2.53.09,1.04-.03,1.96-.12,2.75-.27.42-.09.53-.37.56-.85.02-.24.04-.4.09-.49,0-.11-.44-.31-.54-.34-.3-.08-.63-.11-1.01-.11-.61-.02-3.51,0-4.12-.02-.39,0-1.99-.11-2.4-.11-.66.03-1.38.13-2.17.31-.37.09-.56.01-.56-.33.03-1.51.07-2.5.13-2.98.12-.84.5-1.19,1.43-1.19,2.19-.06,4.04.1,5.53.49.49.1.94.13,1.52.13.22,0,.39,0,.49.02,1.22,0,2.9.1,3.94.24.93.12,1.81.3,2.22.93.48.78.61,1.86.4,3.25-.08.49-.51,2.05-.58,2.55-.15,1-.83,1.35-1.84,1.5-1.15.18-2.31.27-3.49.27h-.38c-1.4,0-3.18-.23-4.5-.36Z"/>
      <path class="cls-1" d="m24.15,20.02c-.51.04-.69.05-1-.12-.13-.07-.2-.15-.21-.22-.12-.7-.22-1.56-.29-2.57-.03-.13.22-.33.31-.36,2.21-.46,6.8-.69,9.18-.99.72-.07,2.15-.13,4.3-.18s3.31-.07,3.47-.07c.61-.06,1.29-.12,1.95-.09.72.06.99.45.81,1.16-.24.85-.52,1.75-.83,2.69-.15.48-1.04.65-1.61.69-.79.08-6.9.4-7.7.47-.69-.08-7.82-.46-8.37-.41Zm16.63-7.29c-.2,1.04-.9,1.67-2.1,1.63-.66-.01-1.25-.07-1.77-.16-.21-.03-.48-.25-.54-.45-.34-1.03-.4-2.02-.18-2.98.11-.49.02-1.55-.28-1.84-.16-.15-.41-.21-.77-.18-1.87.15-3.73.25-5.6.29-1.55.03-3.13-.25-4.75-.85-.19-.06-.37-.37-.43-.58-.03-.28-.13-1.24-.29-2.87-.03-.17.04-.43-.07-.54-.27-.36-.31-.71.06-.86.13-.05.29-.09.48-.1,2.47-.14,7.41,0,9.38.11.56.02,2.4.35,2.91.4,1.31.12,2.64.49,3.98,1.12.24.12.37.25.38.4.03.31.1,1.37.22,3.18-.39,2.57-.6,3.98-.65,4.25Z"/>
      <path class="cls-1" d="m47.37,12.1c-.85-.48-1.42-1.27-1.7-2.37-.54-2.1-.33-3.39.52-4.54.57-.78,1.06-1.36,1.48-1.75.64-.58,1.46-.81,2.44-.69,1.28.16,2.64.68,4.07,1.54.81.48,1.3,1.21,1.48,2.19.46,2.84.2,4.85-1.24,6.04-.65.54-1.47.77-2.45.69-1.67.04-3.2-.33-4.59-1.12Zm3.38,2.82c0,.31.18,1.27.25,1.94.03.29.07.55.13.77l2.75-.16c5.16-.3,4.51-.23,7.87-.57.37-.04.66-.06.88-.06.51,0,.69,1.06.69,2.01,0,.51-.13,1.03-.4,1.57-.09.15-.29.25-.6.3-.2.03-6.13.39-6.33.41-.07.01-.16.02-.25.02-.73,0-4.4.07-5.1.11-.24,0-1.16.07-1.41.07-.67,0-1.27-.15-1.53-.58-.08-.13-.12-.26-.12-.38-.08-.93-.21-4.35-.27-5.28v-.33c-.02-.22-.02-.43-.02-.64l-.02-.31c.07,0,.71-.17.76-.18.16-.03.52-.04,1.07-.04.83,0,1.5-.06,1.5.43,0,.08.16.81.16.89Zm-.72-4.99c.06.12.33.44.51.4,1.5-.13,2.39-1.14,1.61-2.64-.4-.81-1.03-1.08-1.88-.83-.48.15-.73.67-.76,1.57.28.9.46,1.4.52,1.5Zm14.39-8.53c.02.28-.02,1.94.02,2.19.13,1.03.03,3.35-.31,6.96-.04.36-.28,3.56-.31,3.94-.04.36-.25.54-.6.54-.22,0-2.97-.03-3.18-.03-.25,0-.42-.21-.49-.59-.18-.91-.18-2.39,0-4.43.03-.21.07-1.69.11-4.43v-3.38c0-1.02,2.6-.9,3.63-.94l.63-.02c.06,0,.51.14.51.2Z"/>
    </g>
    <circle class="cls-1" cx="64.5" cy="16.37" r=".84"/>
    <circle class="cls-1" cx="65.34" cy="13.24" r=".6"/>
    <circle class="cls-1" cx=".6" cy="3.8" r=".6"/>
    <circle class="cls-1" cx="65.34" cy="17.92" r="1.19"/>
    <circle class="cls-1" cx="2.35" cy="1.19" r="1.19"/>
  </g>
</svg>