<?xml version="1.0" encoding="UTF-8"?>
<svg id="_레이어_2" data-name="레이어 2" xmlns="http://www.w3.org/2000/svg" viewBox="0 0 89.44 23.9">
  <defs>
    <style>
      .cls-1 {
        fill: #3f4050;
      }
    </style>
  </defs>
  <g id="_레이어_1-2" data-name="레이어 1">
    <g>
      <path class="cls-1" d="m11.56,18.01c0,.19.32.47.47.51,1.63.27,2.54.4,2.75.4.79.03,1.2.27,1.43.9.23.69.43,1.33.04,1.85-.37.5-.98.64-1.77.84-.94.21-3.36.31-4.58.3-.72,0-1.09-.03-1.09-.06-.29.02-1.69.16-1.99.17-.41.02-1.4-.08-1.95-.03-.66.06-1.55,0-1.97-.22-.31-.19-.41-.73-.3-1.61s.33-1.41.66-1.59c.1-.04.37-.1.78-.18,1.39-.21,2.25-.37,2.6-.47.3-.09.63-.52.72-.83.04-.15.14-.78.19-.92.06-.15.21-.49.38-.54.28-.09.67-.2,1.1-.2h.95c.92.2,1.54.63,1.57,1.68Zm-7.43-9.16c-.13,0-.33-.08-.36-.18-.18-.55-.34-1.14-.49-1.77-.04-.19.07-.32.34-.38,1.81-.35,7.56-.32,10.16-.4.43,0,1.33-.28,1.05.4-.09.25-.25.82-.49,1.7-.07.31-.27.46-.58.43-.15-.02-.65-.02-1.5-.02h-1.32c.06.02.11.03.16.04.06,0,.76.19.81.2.51.13,1.16.33,1.54.58.34.23.71.5.96.83.86,1.06.81,1.62.04,2.84-.64.93-1.27,1.58-1.88,1.96-.61.38-1.38.57-2.31.57-1.52.03-3.22-.33-5.1-1.07-1.09-.43-1.66-1.11-1.72-2.04-.09-1.19.28-2.08,1.12-2.66.81-.55,1.46-.93,1.95-1.12-.58.02-1.03.02-1.34,0-.17,0-.87.09-1.03.09Zm3.56-2.98h-1.46v-2.26h5.6c-.15,1.21-.25,1.91-.29,2.1-.06.15-.43.34-.65.34-.51-.02-2.74-.14-3.2-.18Zm3.51,6.67c.13-.55-.1-.92-.72-1.1-.79-.24-1.72-.43-2.78-.56-.68-.1-1.13.53-1.21,1.14-.15,1.05.76,1.24,1.72,1.43.2.04,1.37.24,1.37.22h.4c.8-.03,1-.42,1.21-1.14Zm6.67,1.05c-.04-.57-.48-3.17-.52-3.67-.07-.57-.07-1.24.01-2.03.08-.78.12-1.37.12-1.76-.03-.62.21-1.72.36-2.19l.11-.45c.09.02.38.01.86-.01.76-.03,2.65.09,3.03.41.13.12.21.86.23,2.22.03,1.92-.05,7.36-.01,9.13.03,1.16.05,4.52.11,5.69.06,1.1-.43,1.68-1.48,1.72-.12,0-.4.04-.83.13-.87.18-1.41.13-1.84-.38-.07-.09-.15-.45-.22-1.07-.01-.1-.02-.65-.02-1.63h.02c0-.45.08-5.64.04-6.11Z"/>
      <path class="cls-1" d="m24.97,13.11c.03-.43.13-.72.31-.86s.64-.25,1.39-.32c.96-.1,2.57-.17,4.86-.2,2.46-.03,3.92-.04,4.39-.02.13.02.27.02.4.02.31,0,.63-.02.94-.07.91-.09,2,.02,1.79.9-.13.63-.21.96-.22,1.01-.31.89-1.43,1.32-2.69,1.23-.67-.04-1.26-.06-1.77-.04-.49,0-.7.54-.84.91-.05.14-.08.22-.08.24-.1.25-.24.42-.39.57-.05.05-.16.09-.31.11l-.31.04c-.08.01-.86.03-.95.03-.31,0-.64.02-.92.02-.03,0-.16-.08-.16-.11,0-.04-.04-.21-.04-.27,0-.1-.02-.38-.02-.49-.03-.73-.1-1.31-.72-1.42-.62-.11-1.1-.01-1.97-.01-1.43,0-2.73.06-2.69-1.25Zm2.06-3.31c-1.24-.46-1.89-1.18-1.95-2.15-.09-1.25.33-2.18,1.25-2.78,1-.66,1.38-.95,2.56-1.3.94-.27,1.4-.18,2.53-.18,1.49,0,2.43.21,3.57.51.47.13.44.15.86.3.38.14.5.24.81.44.61.38,1.37,1.37,1.41,2,.02.4-.2.93-.66,1.6-.7.98-1.4,1.68-2.08,2.07-.69.4-1.55.59-2.6.59-1.7.03-3.6-.34-5.71-1.12Zm3.31,7.66v2.24h8.77c2.12,0,3.5,0,4.14.02.39,0,.47.32.54.64.01.07.02.11.02.12.03.15.04.31.04.47,0,.66-.14,1.25-.43,1.79-.07.15-.27.25-.58.31-.18.02-6.61.16-6.78.18-.09.02-.17.02-.25.02-.73,0-4.4.08-5.1.11-.24,0-1.16.07-1.41.07-.81,0-1.59-.23-1.68-.96-.05-.75-.28-5.32-.31-6.07h.02c.3,0,.58,0,.85-.02.06,0,.62-.09.69-.09.28,0,.69.09,1.21.27.18.06.27.17.27.34,0,.12-.02.44-.02.56Zm2.08-8.6c.88-.03,1.13-.44,1.37-1.21.16-.58-.1-.96-.78-1.14-.9-.25-1.93-.46-3.11-.6-.76-.1-1.28.56-1.39,1.21-.09.67.22,1.1.94,1.28.48.14,1.54.32,2.08.4l.45.07h.45Zm9.04,4.68c.03-.87,0-1.57-.09-2.13-.03-.27-.3-.5-.53-.55-.47-.11-1.88-.11-2.07-.48-.45-.94-.51-1.74-.18-2.4.17-.35.16-.7.72-.65.48.02,1.86-.23,1.86-.69,0-.73.06-1.74.18-3.02.04-.34.29-.51.74-.49.55.01,1.12,0,1.7-.04.46-.03.78.13.94.47.51,1.09.72,2.42.65,4.01-.02.46.07,2,.07,2.44,0,.62-.26,3.47-.29,4.01-.07,1.34-.19,2.31-.36,2.89-.18.63-1.2.75-3.07.36-.31-.06-.54-.25-.67-.58-.07-.18-.06-.51.06-1s.15-.82.1-1c.03-.68.25-.46.25-1.14Z"/>
      <path class="cls-1" d="m47.54,10.49c.13-2.16.25-3.33.36-3.51.16-.28.4-.46.72-.51,1.85-.34,3.26-.58,4.23-.72,1.48-.21,2.85-.22,4.12-.04.9,0,1.22.3,1.48,1.03.96,2.71.83,5.35.38,8.66-.03.3-.08.98-.15,2.05-.07,1.07-.18,1.88-.32,2.45-.15.61-.34,1.03-.58,1.25-.44.44-2.92.44-3.87.38-.73-.03-.64-.51-.47-1.07.04-.15.07-.25.07-.31.21-1.15.31-2.3.36-3.65.03-1.07,0-2.67-.07-4.79-.04-.93-.43-1.21-1.52-.96-.82.19-2.3.25-4.43.18-.26,0-.32-.13-.29-.43Zm18.51,10.36c.02.6-.16,1-.51,1.21-.9.49-1.54.73-1.95.72-1.48,0-1.84-.45-1.92-1.88-.1-2.09-.16-3.52-.16-4.3,0-1.1.07-4.57.22-10.39.07-.74.27-1.38.43-2.01.09-.4.3-.36.75-.48.5-.14.46-.14.95-.22.57-.1,1.06,0,1.48.19.43.21.67.61.72,1.21.02.25.03,1.15.04,2.7.01,1.54.04,2.51.09,2.9.08.47.57.97.91,1.32.26.27.73.75,1,.98.32.32.53.69.48,1.31-.05.67-.08.67-.26,1.31-.13.54-.6.81-1.41.83-.89,0-.95.15-.92,1.1,0,.46.07,3.06.07,3.51Z"/>
      <path class="cls-1" d="m72.5,13.51c-.85-.48-1.42-1.27-1.7-2.37-.54-2.1-.33-3.39.52-4.54.57-.78,1.06-1.36,1.48-1.75.64-.58,1.46-.81,2.44-.69,1.28.16,2.64.68,4.07,1.54.81.48,1.3,1.21,1.48,2.19.46,2.84.2,4.85-1.24,6.04-.65.54-1.47.77-2.45.69-1.67.04-3.2-.33-4.59-1.12Zm10.79,3.83c0-.67.08-1.15.29-1.52.13-.22.33-.22.69-.22,0,0,1.32-.16,1.34-.16.72.19,1.15.37,1.31.54s.23.56.23,1.19c0,1.06-.04,2.38-.13,3.96-.06,1.28-1.32,2.17-2.6,2.28-.64.06-3.09.43-3.78.47-.27.01-.56.02-.87.02-.42,0-1.32-.04-2.71-.11-.42-.03-1.01-.11-1.77-.25-.97-.19-1.6-.79-1.9-1.79-.24-.78-.36-1.6-.36-2.46s.13-1.99.4-3.34c.13-.52.76-.49,1.41-.49h.2c.72,0,1.23.04,1.23.78v1.6s0,.71,0,.71h2.37c.61,0,1.15,0,1.61-.02.33,0,1.92-.11,2.22-.11.54-.03.81-.31.81-.83v-.25Zm-8.12-6c.06.12.33.44.51.4,1.5-.13,2.39-1.14,1.61-2.64-.4-.81-1.03-1.08-1.88-.83-.48.15-.73.67-.76,1.57.28.9.46,1.4.52,1.5Zm5.01,9.18c-.34,0-.67,0-.98.02-.51,0-1.01.04-1.52.13-.12.02-.43.21-.43.34.08.42.35.6.87.6.3,0,.93-.09,1.21-.09.43,0,.76.11,1.21.11.42,0,.98-.07,1.68-.22.37-.07.56-.27.56-.58,0-.06,0-.13-.02-.22l-.13-.07h-.77c-.58,0-1.12-.02-1.67-.02Zm4.5-10.92c.04-.46.08-1.45.11-2.95v-2.4c0-.24.13-.42.4-.54.58-.25,1.87-.4,3.85-.43.01,0,.07.02.18.07.18,3.06.38,3.21.04,6.83-.04.49-.28,2.35-.31,2.82-.04.36-.25.54-.6.54-.16-.02-.67-.02-1.52-.02s-1.4,0-1.66-.01c-.59-.02-.63-1.24-.63-1.91,0-.1.02-.57.02-.66,0-.44.11-.89.11-1.33Z"/>
    </g>
    <circle class="cls-1" cx="4.54" cy=".84" r=".84"/>
    <circle class="cls-1" cx="3.7" cy="3.81" r=".6"/>
    <circle class="cls-1" cx="1.19" cy="6.37" r="1.19"/>
  </g>
</svg>